<svg xmlns="http://www.w3.org/2000/svg" version="1.1" xmlns:xlink="http://www.w3.org/1999/xlink" xmlns:svgjs="http://svgjs.com/svgjs" width="512" height="512" x="0" y="0" viewBox="0 0 511 511.99975" style="enable-background:new 0 0 512 512" xml:space="preserve" class=""><g><path d="m391.867188 249.601562c.03125-4.140624-3.300782-7.523437-7.441407-7.558593l-11.191406-.082031c-4.1875-.015626-7.523437 3.300781-7.554687 7.441406-.03125 4.144531 3.300781 7.527344 7.441406 7.558594l11.191406.082031h.054688c4.117187.003906 7.46875-3.320313 7.5-7.441407zm0 0" fill="#ffffff" data-original="#000000" class=""></path><path d="m368.542969 230.160156c1.253906 0 2.523437-.316406 3.691406-.980468l9.734375-5.523438c3.601562-2.042969 4.863281-6.621094 2.820312-10.222656-2.042968-3.601563-6.621093-4.867188-10.222656-2.820313l-9.734375 5.519531c-3.601562 2.046876-4.867187 6.625-2.820312 10.226563 1.378906 2.433594 3.917969 3.800781 6.53125 3.800781zm0 0" fill="#ffffff" data-original="#000000" class=""></path><path d="m364.332031 282.65625 9.648438 5.667969c1.191406.703125 2.5 1.035156 3.792969 1.035156 2.570312 0 5.074218-1.324219 6.472656-3.703125 2.097656-3.570312.902344-8.164062-2.667969-10.265625l-9.648437-5.667969c-3.570313-2.097656-8.167969-.902344-10.265626 2.667969-2.097656 3.574219-.90625 8.167969 2.667969 10.265625zm0 0" fill="#ffffff" data-original="#000000" class=""></path><path d="m9.25 257.046875h.058594l11.1875-.085937c4.144531-.03125 7.476562-3.414063 7.445312-7.558594-.03125-4.121094-3.382812-7.441406-7.5-7.441406-.019531 0-.039062 0-.058594 0l-11.1875.085937c-4.144531.03125-7.476562 3.414063-7.445312 7.554687.03125 4.121094 3.382812 7.445313 7.5 7.445313zm0 0" fill="#ffffff" data-original="#000000" class=""></path><path d="m11.648438 223.65625 9.734374 5.523438c1.167969.664062 2.4375.980468 3.691407.980468 2.613281 0 5.152343-1.367187 6.53125-3.800781 2.042969-3.601563.78125-8.179687-2.820313-10.222656l-9.734375-5.523438c-3.601562-2.046875-8.179687-.78125-10.222656 2.820313-2.042969 3.605468-.78125 8.179687 2.820313 10.222656zm0 0" fill="#ffffff" data-original="#000000" class=""></path><path d="m21.6875 269.722656-9.648438 5.667969c-3.570312 2.097656-4.765624 6.695313-2.667968 10.265625 1.398437 2.378906 3.902344 3.703125 6.476562 3.703125 1.289063 0 2.597656-.332031 3.792969-1.035156l9.644531-5.667969c3.574219-2.097656 4.769532-6.691406 2.667969-10.265625-2.097656-3.570313-6.691406-4.761719-10.265625-2.667969zm0 0" fill="#ffffff" data-original="#000000" class=""></path><path d="m414.226562 95.78125c-2.929687-2.925781-7.675781-2.925781-10.605468 0l-18.992188 18.992188c-9.765625-2.375-19.734375-3.855469-29.707031-4.40625-43.257813-2.347657-87.054687 13.121093-126.613281 44.730468-9.921875 7.925782-19.828125 15.121094-29.691406 21.625l-20.949219-20.949218 14.417969-14.417969 12.535156 12.539062c1.464844 1.464844 3.382812 2.195313 5.304687 2.195313 1.917969 0 3.835938-.730469 5.300781-2.195313 2.929688-2.929687 2.929688-7.679687 0-10.609375l-12.535156-12.535156 14.417969-14.417969 12.535156 12.539063c1.464844 1.464844 3.386719 2.195312 5.304688 2.195312s3.839843-.730468 5.304687-2.195312c2.929688-2.929688 2.929688-7.679688 0-10.605469l-12.535156-12.539063 14.414062-14.414062 12.539063 12.535156c1.464844 1.464844 3.382813 2.195313 5.300781 2.195313 1.921875 0 3.839844-.730469 5.304688-2.195313 2.929687-2.929687 2.929687-7.675781 0-10.605468l-12.535156-12.539063 14.417968-14.417969 24.5 24.5c1.464844 1.464844 3.382813 2.199219 5.300782 2.199219 1.921874 0 3.839843-.734375 5.304687-2.199219 2.929687-2.925781 2.929687-7.675781 0-10.605468l-24.5-24.5 42.878906-42.875c2.929688-2.929688 2.929688-7.679688 0-10.609376-2.929687-2.925781-7.675781-2.925781-10.605469 0l-127.257812 127.253907c-.0625-.007813-.117188-.019531-.179688-.023438-10.863281-.929687-21.660156-2.933593-32.09375-5.953125-7.308593-2.109375-14.894531-3.179687-22.539062-3.179687-40.511719 0-75.023438 30.277343-80.285156 70.425781-.535156 4.109375 2.355468 7.875 6.464844 8.414062.328124.042969.65625.0625.980468.0625 3.710938 0 6.933594-2.75 7.429688-6.527343 4.285156-32.707031 32.402344-57.375 65.40625-57.375 6.242187 0 12.425781.871093 18.375 2.585937 7.511718 2.175782 15.199218 3.859375 22.964844 5.046875l-43.234376 43.234375c-11.824218 11.820313-11.824218 31.058594 0 42.878906l9.003907 9.003907-31.71875 31.71875c-3.523438 3.523437-5.464844 8.210937-5.464844 13.195312s1.941406 9.667969 5.464844 13.191407l3.15625 3.15625-15.496094 15.496093c-3.449219-15.875-6.230469-27.292969-8.300781-34.113281-.027344-.085938-.050782-.171875-.082032-.269531l-17.210937-58.1875c-1.171875-3.972657-5.347656-6.242188-9.316406-5.066407-3.972657 1.175782-6.242188 5.347657-5.066407 9.320313l17.234376 58.269531c.011718.050782.027343.101563.042968.152344.011719.03125.019532.0625.03125.09375 1.464844 4.808594 3.359375 12.328125 5.640625 22.34375-9.4375-2.207031-19.414062-.882812-28.238281 4.03125l-37.253906 20.746094c-4.929688 2.75-7.996094 7.960937-7.996094 13.609375v150.691406c0 8.589844 6.988281 15.578125 15.578125 15.578125h361.460937c8.589844 0 15.578126-6.988281 15.578126-15.578125v-84.613281c0-4.140625-3.359376-7.5-7.5-7.5-4.144532 0-7.5 3.359375-7.5 7.5v84.613281c0 .320313-.261719.578125-.578126.578125h-361.460937c-.316406 0-.578125-.257812-.578125-.578125v-150.691406c0-.210938.113281-.402344.296875-.503907l37.25-20.746093c7.765625-4.324219 16.96875-4.207031 24.617187.316406.058594.03125.113282.058594.171876.089844.175781.839843.355468 1.691406.539062 2.554687l-25.804688 25.804688c-2.929687 2.925781-2.929687 7.675781 0 10.605468 1.464844 1.464844 3.382813 2.195313 5.304688 2.195313 1.917969 0 3.839844-.730469 5.300781-2.195313l18.832031-18.832031c1.632813 8.035157 3.363282 16.742188 5.1875 26.097657 5.820313 29.84375 11.394532 60.03125 15.046876 80.101562 2.675781 14.683594 15.234374 25.6875 29.863281 26.167969 7.851562.253906 15.445312-2.414063 21.410156-7.519531 5.671875-4.863282 9.425781-11.609376 10.570313-18.992188l14.199218-91.941406c1.417969-9.199219 9.207032-15.875 18.523438-15.875 2.796875 0 5.480468.597656 7.980468 1.777344 5.648438 2.664062 9.59375 7.9375 10.550782 14.101562l14.199218 91.933594c2.363282 15.375 15.375 26.535156 30.933594 26.535156 7.3125 0 14.4375-2.578125 20.066406-7.265625 5.621094-4.695313 9.433594-11.242187 10.738282-18.4375 5.25-28.863281 15.824218-85.996094 24.5-126.835937.128906-.0625.257812-.121094.382812-.195313 7.605469-4.398437 16.730469-4.46875 24.40625-.195313l37.253906 20.75c.179688.101563.296876.292969.296876.503907v33.417969c0 4.140624 3.355468 7.5 7.5 7.5 4.140624 0 7.5-3.359376 7.5-7.5v-33.417969c0-5.644531-3.066407-10.859375-8-13.609375l-37.253907-20.746094c-8.808593-4.90625-18.800781-6.230469-28.246093-4.023438 2.148437-9.429687 4.078124-17.167968 5.636718-22.304687.042969-.125.082032-.257813.121094-.398437l17.882812-60.472657c4.558594-15.410156 4.476563-31.476562-.1875-46.628906l71.15625-71.15625c2.929688-2.929687 2.929688-7.679687 0-10.609375zm-277.550781 100.984375 30.382813-30.382813 18.53125 18.53125c-17.953125 10.730469-35.738282 19.066407-53.21875 24.898438-.667969-4.621094.753906-9.496094 4.304687-13.046875zm-22.714843 83.605469 31.71875-31.722656 22.09375 22.09375-31.71875 31.722656c-.933594.929687-2.023438 1.070312-2.585938 1.070312-.566406 0-1.65625-.140625-2.585938-1.070312l-16.921874-16.921875c-.933594-.933594-1.070313-2.019531-1.070313-2.585938 0-.566406.136719-1.65625 1.070313-2.585937zm214.917968-60.449219-17.917968 60.578125c-.003907.011719-.007813.027344-.011719.039062-.007813.03125-.015625.058594-.027344.089844-8.117187 26.664063-25.039063 116.945313-34.402344 168.394532-.679687 3.746093-2.664062 7.15625-5.585937 9.597656-2.933594 2.441406-6.644532 3.785156-10.457032 3.785156-8.105468 0-14.878906-5.808594-16.109374-13.820312l-14.199219-91.941407c-1.722657-11.101562-8.820313-20.585937-18.976563-25.371093-4.511718-2.132813-9.351562-3.214844-14.382812-3.214844-16.769532 0-30.792969 12.027344-33.347656 28.59375l-14.199219 91.933594c-.59375 3.84375-2.550781 7.359374-5.5 9.890624-3.109375 2.660157-7.0625 4.054688-11.160157 3.917969-7.621093-.25-14.179687-6.078125-15.597656-13.859375-3.660156-20.113281-9.25-50.367187-15.082031-80.285156-2.609375-13.367188-5.007813-25.34375-7.199219-35.941406l22.394532-22.394532 3.15625 3.15625c3.523437 3.523438 8.210937 5.464844 13.195312 5.464844s9.667969-1.941406 13.191406-5.464844l31.722656-31.71875 9.003907 9.003907c5.726562 5.726562 13.339843 8.878906 21.4375 8.878906 8.101562 0 15.714843-3.152344 21.441406-8.878906l26.089844-26.09375c2.929687-2.925781 2.929687-7.675781 0-10.605469-2.929688-2.929688-7.675781-2.929688-10.605469 0l-26.09375 26.09375c-2.890625 2.894531-6.738281 4.484375-10.832031 4.484375-4.089844 0-7.9375-1.589844-10.832031-4.484375l-57.035157-57.039062c31.726563-11.179688 64.207031-29.929688 96.714844-55.890626 37.160156-29.691406 76.347656-43.652343 116.433594-41.472656 5.96875.332032 11.941406 1.035156 17.859375 2.09375l-101.710938 101.707032c-2.929687 2.929687-2.929687 7.679687 0 10.609374 1.464844 1.460938 3.382813 2.195313 5.304688 2.195313 1.917968 0 3.839844-.730469 5.304687-2.195313l49.804688-49.804687c1.71875 9.894531 1.128906 20.09375-1.789063 29.96875zm0 0" fill="#ffffff" data-original="#000000" class=""></path><path d="m185.304688 214.691406h-.109376c-.011718 0-.023437 0-.035156 0-4.125 0-7.480468 3.335938-7.5 7.464844-.019531 4.144531 3.324219 7.515625 7.464844 7.535156h.109375.035156c4.125 0 7.480469-3.335937 7.5-7.464844.019531-4.144531-3.324219-7.515624-7.464843-7.535156zm0 0" fill="#ffffff" data-original="#000000" class=""></path><path d="m264.539062 180.121094c.019532-4.140625-3.324218-7.515625-7.464843-7.535156h-.109375c-4.105469-.039063-7.515625 3.324218-7.535156 7.46875-.015626 4.140624 3.324218 7.511718 7.46875 7.53125h.105468.035156c4.128907.003906 7.480469-3.332032 7.5-7.464844zm0 0" fill="#ffffff" data-original="#000000" class=""></path><path d="m274.460938 207.421875c.039062-4.144531-3.289063-7.53125-7.429688-7.566406l-.109375-.003907c-.023437 0-.046875 0-.070313 0-4.109374 0-7.460937 3.316407-7.5 7.433594-.035156 4.144532 3.292969 7.53125 7.433594 7.566406h.109375.070313c4.109375 0 7.460937-3.3125 7.496094-7.429687zm0 0" fill="#ffffff" data-original="#000000" class=""></path></g></svg>