<svg xmlns="http://www.w3.org/2000/svg" version="1.1" xmlns:xlink="http://www.w3.org/1999/xlink" xmlns:svgjs="http://svgjs.com/svgjs" width="512" height="512" x="0" y="0" viewBox="0 0 682.66669 682.66669" style="enable-background:new 0 0 512 512" xml:space="preserve" class=""><g><defs id="defs3055"><clipPath clipPathUnits="userSpaceOnUse" id="clipPath3065"><path d="M 0,512 H 512 V 0 H 0 Z" id="path3063" fill="#ffffff" data-original="#000000" class=""></path></clipPath></defs><g id="g3057" transform="matrix(1.3333333,0,0,-1.3333333,0,682.66667)"><g id="g3059"><g id="g3061" clip-path="url(#clipPath3065)"><g id="g3067" transform="translate(155.6191,156.0088)"><path d="m 0,0 c 11.784,-37.74 47.009,-65.133 88.631,-65.133 41.623,0 76.848,27.393 88.632,65.133" style="stroke-width:20;stroke-linecap:round;stroke-linejoin:round;stroke-miterlimit:10;stroke-dasharray:none;stroke-opacity:1" id="path3069" fill="none" stroke="#ffffff" stroke-width="20" stroke-linecap="round" stroke-linejoin="round" stroke-miterlimit="10" stroke-dasharray="none" stroke-opacity="" data-original="#000000" class=""></path></g><g id="g3071" transform="translate(45.6387,274.6719)"><path d="m 0,0 c -8.905,3.977 -15.372,12.617 -16.077,23.025 l -6.378,94.147 c -1.016,14.995 10.318,27.976 25.314,28.992 14.995,1.015 27.976,-10.318 28.992,-25.313 L 38.229,26.704 C 39.245,11.709 27.912,-1.272 12.916,-2.287 8.328,-2.599 3.926,-1.753 0,0 Z" style="stroke-width:20;stroke-linecap:round;stroke-linejoin:round;stroke-miterlimit:10;stroke-dasharray:none;stroke-opacity:1" id="path3073" fill="none" stroke="#ffffff" stroke-width="20" stroke-linecap="round" stroke-linejoin="round" stroke-miterlimit="10" stroke-dasharray="none" stroke-opacity="" data-original="#000000" class=""></path></g><g id="g3075" transform="translate(273.5596,95.0996)"><path d="M 0,0 V -85.105 H -58.618 V 0" style="stroke-width:20;stroke-linecap:round;stroke-linejoin:round;stroke-miterlimit:10;stroke-dasharray:none;stroke-opacity:1" id="path3077" fill="none" stroke="#ffffff" stroke-width="20" stroke-linecap="round" stroke-linejoin="round" stroke-miterlimit="10" stroke-dasharray="none" stroke-opacity="" data-original="#000000" class=""></path></g><g id="g3079" transform="translate(194.0293,9.9941)"><path d="M 0,0 H 101.491" style="stroke-width:20;stroke-linecap:round;stroke-linejoin:round;stroke-miterlimit:10;stroke-dasharray:none;stroke-opacity:1" id="path3081" fill="none" stroke="#ffffff" stroke-width="20" stroke-linecap="round" stroke-linejoin="round" stroke-miterlimit="10" stroke-dasharray="none" stroke-opacity="" data-original="#000000" class=""></path></g><g id="g3083" transform="translate(194.0322,396.9922)"><path d="m 0,0 c 0,25.502 20.673,46.175 46.175,46.175 v 0 C 71.677,46.175 92.35,25.502 92.35,0 v -76.681" style="stroke-width:20;stroke-linecap:round;stroke-linejoin:round;stroke-miterlimit:10;stroke-dasharray:none;stroke-opacity:1" id="path3085" fill="none" stroke="#ffffff" stroke-width="20" stroke-linecap="round" stroke-linejoin="round" stroke-miterlimit="10" stroke-dasharray="none" stroke-opacity="" data-original="#000000" class=""></path></g><g id="g3087" transform="translate(211.5171,269.5498)"><path d="M 0,0 H 45.649 C 73.683,0 96.411,22.727 96.411,50.762 H -50.762 C -50.762,22.727 -28.035,0 0,0 Z" style="stroke-width:20;stroke-linecap:round;stroke-linejoin:round;stroke-miterlimit:10;stroke-dasharray:none;stroke-opacity:1" id="path3089" fill="none" stroke="#ffffff" stroke-width="20" stroke-linecap="round" stroke-linejoin="round" stroke-miterlimit="10" stroke-dasharray="none" stroke-opacity="" data-original="#000000" class=""></path></g><path d="m 270.034,269.55 h -71.385 v -58.617 h 71.385 z" style="stroke-width:20;stroke-linecap:round;stroke-linejoin:round;stroke-miterlimit:10;stroke-dasharray:none;stroke-opacity:1" id="path3091" fill="none" stroke="#ffffff" stroke-width="20" stroke-linecap="round" stroke-linejoin="round" stroke-miterlimit="10" stroke-dasharray="none" stroke-opacity="" data-original="#000000" class=""></path><g id="g3093" transform="translate(453.2412,378.874)"><path d="m 0,0 v 74.489 c 0,21.344 -17.302,38.646 -38.645,38.646 -10.25,0 -20.079,-4.072 -27.326,-11.32 L -76.877,90.909" style="stroke-width:20;stroke-linecap:round;stroke-linejoin:round;stroke-miterlimit:10;stroke-dasharray:none;stroke-opacity:1" id="path3095" fill="none" stroke="#ffffff" stroke-width="20" stroke-linecap="round" stroke-linejoin="round" stroke-miterlimit="10" stroke-dasharray="none" stroke-opacity="" data-original="#000000" class=""></path></g><g id="g3097" transform="translate(343.1816,210.9268)"><path d="M 0,0 H 86.408 C 99.471,0 110.06,10.589 110.06,23.651 V 77.947" style="stroke-width:20;stroke-linecap:round;stroke-linejoin:round;stroke-miterlimit:10;stroke-dasharray:none;stroke-opacity:1" id="path3099" fill="none" stroke="#ffffff" stroke-width="20" stroke-linecap="round" stroke-linejoin="round" stroke-miterlimit="10" stroke-dasharray="none" stroke-opacity="" data-original="#000000" class=""></path></g><g id="g3101" transform="translate(388.7812,404.0166)"><path d="m 0,0 -78.016,78.017 15.234,15.233 c 6.318,6.319 16.563,6.319 22.883,0 L 15.233,38.117 c 6.32,-6.319 6.32,-16.564 0,-22.884 z" style="stroke-width:20;stroke-linecap:round;stroke-linejoin:round;stroke-miterlimit:10;stroke-dasharray:none;stroke-opacity:1" id="path3103" fill="none" stroke="#ffffff" stroke-width="20" stroke-linecap="round" stroke-linejoin="round" stroke-miterlimit="10" stroke-dasharray="none" stroke-opacity="" data-original="#000000" class=""></path></g><g id="g3105" transform="translate(357.2344,207.0225)"><path d="m 0,0 118.116,-68.754 c 12.99,-7.561 17.391,-24.222 9.83,-37.212 -5.054,-8.682 -14.176,-13.528 -23.547,-13.528 -4.649,0 -9.358,1.191 -13.666,3.698 l -112.13,65.271" style="stroke-width:20;stroke-linecap:round;stroke-linejoin:round;stroke-miterlimit:10;stroke-dasharray:none;stroke-opacity:1" id="path3107" fill="none" stroke="#ffffff" stroke-width="20" stroke-linecap="round" stroke-linejoin="round" stroke-miterlimit="10" stroke-dasharray="none" stroke-opacity="" data-original="#000000" class=""></path></g><g id="g3109" transform="translate(83.3296,309.3271)"><path d="M 0,0 72.861,-98.4" style="stroke-width:20;stroke-linecap:round;stroke-linejoin:round;stroke-miterlimit:10;stroke-dasharray:none;stroke-opacity:1" id="path3111" fill="none" stroke="#ffffff" stroke-width="20" stroke-linecap="round" stroke-linejoin="round" stroke-miterlimit="10" stroke-dasharray="none" stroke-opacity="" data-original="#000000" class=""></path></g><g id="g3113" transform="translate(120.4121,167.7793)"><path d="m 0,0 -85.569,115.563 c -0.231,0.312 -0.454,0.627 -0.67,0.946" style="stroke-width:20;stroke-linecap:round;stroke-linejoin:round;stroke-miterlimit:10;stroke-dasharray:none;stroke-opacity:1" id="path3115" fill="none" stroke="#ffffff" stroke-width="20" stroke-linecap="round" stroke-linejoin="round" stroke-miterlimit="10" stroke-dasharray="none" stroke-opacity="" data-original="#000000" class=""></path></g><g id="g3117" transform="translate(199.2505,156.4971)"><path d="m 0,0 h -56.772 c -15.03,0 -27.215,12.185 -27.215,27.215 0,15.03 12.185,27.215 27.215,27.215 h 200.703 c 15.03,0 27.215,-12.185 27.215,-27.215 C 171.146,12.185 158.961,0 143.931,0 H 0" style="stroke-width:20;stroke-linecap:round;stroke-linejoin:round;stroke-miterlimit:10;stroke-dasharray:none;stroke-opacity:1" id="path3119" fill="none" stroke="#ffffff" stroke-width="20" stroke-linecap="round" stroke-linejoin="round" stroke-miterlimit="10" stroke-dasharray="none" stroke-opacity="" data-original="#000000" class=""></path></g><g id="g3121" transform="translate(453.2412,333.874)"><path d="M 0,0 V 0" style="stroke-width:20;stroke-linecap:round;stroke-linejoin:round;stroke-miterlimit:10;stroke-dasharray:none;stroke-opacity:1" id="path3123" fill="none" stroke="#ffffff" stroke-width="20" stroke-linecap="round" stroke-linejoin="round" stroke-miterlimit="10" stroke-dasharray="none" stroke-opacity="" data-original="#000000" class=""></path></g></g></g></g></g></svg>